<?xml version="1.0" encoding="UTF-8" standalone="no"?>
<svg
   width="839"
   height="771"
   viewBox="0 0 839 771"
   version="1.1"
   id="svg19"
   sodipodi:docname="logo__inkscape__DanielRequest.svg"
   inkscape:version="1.1 (c68e22c387, 2021-05-23)"
   inkscape:export-filename="C:\Users\Carol\Downloads\logo_thicker__inkscape.png"
   inkscape:export-xdpi="96"
   inkscape:export-ydpi="96"
   xmlns:inkscape="http://www.inkscape.org/namespaces/inkscape"
   xmlns:sodipodi="http://sodipodi.sourceforge.net/DTD/sodipodi-0.dtd"
   xmlns="http://www.w3.org/2000/svg"
   xmlns:svg="http://www.w3.org/2000/svg">
  <defs
     id="defs23" />
  <sodipodi:namedview
     id="namedview21"
     pagecolor="#ffffff"
     bordercolor="#111111"
     borderopacity="1"
     inkscape:pageshadow="0"
     inkscape:pageopacity="0"
     inkscape:pagecheckerboard="1"
     showgrid="false"
     inkscape:zoom="0.77864288"
     inkscape:cx="556.44822"
     inkscape:cy="403.69192"
     inkscape:window-width="1920"
     inkscape:window-height="1057"
     inkscape:window-x="-8"
     inkscape:window-y="-8"
     inkscape:window-maximized="1"
     inkscape:current-layer="svg19"
     inkscape:rotation="-2" />
  <path
     style="fill:#ffffff;fill-opacity:1;stroke-width:1.28429"
     d="m 709.17443,452.47238 c -7.36981,-10.67054 -69.35607,18.9113 -101.53104,30.56701 -33.45477,13.41218 -69.78557,24.34617 -102.09877,40.39948 -13.25078,7.53426 -14.16372,27.60101 -20.7175,40.28925 -6.91826,16.27603 -13.25189,33.27679 -20.61048,49.07688 70.66064,1.33201 141.25371,5.85597 211.73617,10.85351 9.93738,0.44556 20.23062,3.25623 29.96291,0.38901 -0.37875,-32.95823 -7.14398,-65.52091 -7.30236,-98.52761 -1.36889,-20.61669 7.10333,-38.93196 10.10318,-62.54462 0.14741,-3.72869 1.38811,-15.30712 -2.40666,-12.66345 -0.21115,-0.0194 -0.81506,-0.10615 -0.63462,0.005 z"
     id="path5104"
     sodipodi:nodetypes="ccccccccccsc" />
  <path
     style="fill:#ffffff;fill-opacity:1;stroke-width:1.29087"
     d="m 728.25339,508.24495 c -9.29629,-3.20802 -17.65685,4.51697 -21.04223,12.40515 2.92551,39.57705 -15.4463,77.05431 10.84518,116.33647 -53.42113,-3.97018 -101.86504,-2.0487 -155.40244,-2.83188 -74.27379,0.35808 -148.82764,-0.92027 -222.77685,7.09506 -62.93716,7.07699 -124.4494,23.12452 -186.97859,32.48857 -5.29179,0.84904 -1.86669,-7.74791 -3.40682,-10.57446 -2.88906,-34.3019 -1.59773,-69.33159 -9.64548,-102.9667 -3.12708,-5.81814 -11.78271,-13.94317 -18.42854,-8.38142 -3.63986,10.44171 -1.47672,22.30106 -1.73745,33.261 2.72796,36.90738 6.53683,74.54026 -1.96146,111.02387 -2.9546,18.06779 -10.28588,38.44883 -11.83064,56.48767 85.78754,-1.94669 172.21769,-61.66208 260.73201,-77.28051 46.47668,-9.95944 94.13336,-11.32587 141.49942,-10.7174 42.36812,-0.84859 84.61165,3.67495 126.10172,12.10294 42.80797,7.52323 84.75126,27.29479 128.53823,22.14839 13.7121,-0.51345 2.45938,-7.06051 2.25016,-10.20083 -8.1095,-26.0414 -19.89986,-51.07707 -23.63798,-78.33519 -6.31598,-33.28855 -6.05525,-67.35313 -10.42004,-100.83313 -0.41387,-1.01884 -1.71148,-1.29675 -2.6982,-1.2276 z"
     id="path5143"
     sodipodi:nodetypes="cccccccccccccccccccc" />
  <path
     style="fill:#e3e3e3;fill-opacity:1;stroke-width:1.42272"
     d="m 727.22042,443.95653 c -7.54961,16.30503 -16.05645,33.32242 -17.14833,51.49904 3.55632,5.65203 11.54746,-0.80532 16.72066,0.0835 6.09957,2.76412 7.88792,11.29654 11.78267,16.40453 13.21705,22.62661 22.17577,47.97899 38.15993,68.86279 3.2278,1.2124 2.67227,-5.37651 3.01589,-7.24023 0.45834,-32.14687 -16.50987,-60.82826 -28.58761,-89.57951 -7.15193,-13.6117 -12.57972,-29.52642 -23.94321,-40.03003 z"
     id="path5182" />
  <path
     style="fill:#b0b0b0;fill-opacity:1;stroke-width:2.28142"
     d="m 741.50525,531.11551 c -2.23244,25.55565 2.75516,41.59777 6.66669,66.41308 8.40507,6.42845 23.54729,-8.11182 17.7965,-26.39984 -3.29027,-19.75488 -14.89813,-28.5299 -24.46319,-40.01324 z"
     id="path5221"
     sodipodi:nodetypes="cccc" />
  <path
     style="fill:#e3e3e3;fill-opacity:1;stroke-width:1.60384"
     d="m 771.31163,601.74549 c -6.90766,2.24088 -16.98034,3.42301 -20.21263,10.35526 1.07015,13.22494 7.45661,25.93068 13.38667,37.85703 1.17638,3.01125 6.96253,9.11478 8.34645,2.85724 2.8229,-15.90021 6.43772,-32.74163 2.85655,-48.73398 -0.65323,-1.63578 -2.57424,-2.53932 -4.37704,-2.33555 z"
     id="path5260" />
  <path
     style="fill:#ffffff;fill-opacity:0.862745;stroke-width:1.28429"
     d="m 406.07261,458.38217 c -16.50838,19.71642 -30.01287,41.79879 -46.26941,61.63569 -5.09737,7.42038 -14.50453,1.53449 -21.57309,1.8035 -71.27158,-9.20954 -140.11132,-31.5325 -209.84668,-48.28361 -2.54696,-1.36726 -7.80992,0.34585 -6.17812,3.29851 7.92387,23.85961 16.79204,45.95486 26.88328,68.63284 0.757,36.2813 2.82942,75.00251 4.84511,111.2321 0.54751,3.86124 7.76426,8.20151 12.31264,5.53233 67.37715,-15.69607 134.0948,-35.78066 203.28473,-42.0252 19.71546,-2.55591 44.40602,-2.15355 63.78997,-5.49947 -4.12125,-13.06378 -17.7547,-25.91229 -22.776,-38.72423 3.04358,-1.51452 6.68725,3.97213 9.38381,5.32778 8.0821,6.25621 15.05725,14.94377 23.83203,19.83117 9.09752,-13.3793 13.0718,-29.76907 18.92838,-44.77104 4.47318,-14.1115 9.93755,-28.23557 13.19632,-42.55788 -12.4114,-13.58096 -26.01986,-26.41172 -40.68075,-37.51519 -3.70813,1.1922 -0.50212,7.27703 -0.72241,10.0385 4.13311,24.73022 12.85685,49.57617 10.17144,74.86985 0.31371,2.9098 -4.13796,6.75359 -4.83865,1.9189 -12.99925,-35.48113 -16.59937,-74.12824 -29.95998,-109.21446 -1.26087,1.48997 -2.52174,2.97994 -3.78262,4.46991 z"
     id="path5299"
     sodipodi:nodetypes="ccccccccccccccccccccc" />
  <path
     style="fill:#e3e3e3;fill-opacity:1;stroke-width:1.28429"
     d="m 81.88121,652.35189 c 1.175337,17.8653 5.843335,42.07644 12.952414,58.18702 6.233106,-13.11795 12.508476,-32.57994 13.335506,-46.99462 -2.9241,-8.66942 -18.496646,-11.61237 -26.28792,-11.1924 z"
     id="path5338"
     sodipodi:nodetypes="cccc" />
  <path
     style="fill:#b0b0b0;fill-opacity:1;stroke-width:1.28429"
     d="m 103.00779,599.66285 c -6.302404,4.79798 -8.934441,16.27688 -11.73531,23.29801 -0.829133,4.93782 -4.935516,16.61825 2.632204,18.87394 4.407951,2.70108 14.743236,-1.31144 13.702816,-7.48958 0.26442,-10.4027 1.8552,-23.16152 -1.81713,-33.09925 -0.28745,-0.35929 -2.30659,-1.627 -2.78258,-1.58312 z"
     id="path5377"
     sodipodi:nodetypes="cccccc" />
  <path
     style="fill:#e3e3e3;fill-opacity:1;stroke-width:1.28429"
     d="m 104.70087,489.03118 c -6.895279,7.32294 -11.607209,19.02577 -15.930661,28.03786 -9.832982,25.28897 -18.928129,51.65853 -18.72941,79.21949 0.463829,9.20591 -0.565907,23.50458 3.952324,31.94132 3.166955,1.45663 5.864228,-5.31853 7.450932,-6.89469 11.748219,-25.795 16.625421,-57.46119 29.160045,-82.86823 4.67204,-5.57159 16.08308,2.31006 22.17752,1.5121 10.03122,2.18796 -2.61575,-16.69898 -3.2221,-21.27202 -6.33778,-10.6692 -12.92004,-20.64926 -22.02495,-29.20434 l -1.21738,-0.79576 z"
     id="path5416"
     sodipodi:nodetypes="ccccccccccc" />
  <path
     style="fill:#ffffff;fill-opacity:1;stroke-width:1.28429"
     d="m 589.84004,388.12148 c -115.45429,9.12037 -233.10265,13.32342 -348.26605,25.59757 -4.51035,1.27958 -16.44791,0.95359 -18.15133,6.3746 1.77991,16.15439 2.00683,45.04501 9.52788,59.47347 14.70898,9.05062 39.03081,12.60637 54.96963,19.27311 20.20028,6.87566 42.30511,15.8436 63.53227,18.94469 9.46037,-3.00672 15.99147,-16.48579 21.03934,-24.07276 10.09436,-18.06925 15.58187,-35.94383 28.31056,-52.3433 6.60991,-5.32495 12.27273,4.05816 20.0641,2.59392 29.84973,15.28133 52.15496,43.7261 80.69845,60.83948 9.97278,2.63699 22.42956,-5.98293 31.73204,-8.62998 14.04378,-6.51789 30.63365,-10.44082 41.08051,-22.45888 9.27349,-18.01454 10.82186,-42.117 15.72981,-61.57456 0.69648,-7.05874 5.33993,-17.04019 4.07795,-24.00226 -0.90836,-0.68115 -3.28182,0.007 -4.34516,-0.0151 z"
     id="path5455"
     sodipodi:nodetypes="ccccccccccccccc" />
  <path
     style="fill:#d9b75e;fill-opacity:1;stroke-width:1.28429"
     d="m 404.03026,452.98013 c -10.14676,9.99828 -13.69508,19.6486 -22.60095,30.89902 -8.42248,11.40528 -15.18121,29.32253 -24.82929,39.6128 25.65079,17.72422 44.2341,42.89282 67.67991,64.86 3.36114,5.11591 14.40058,14.1667 20.34383,16.44884 8.68977,-11.30489 13.97781,-28.2294 19.39256,-41.28134 5.52759,-15.99621 8.27635,-33.49894 13.052,-49.69094 -12.86085,-13.3576 -29.15433,-33.31246 -43.99708,-44.37009 -3.96192,1.57902 -0.84659,18.4988 -1.15267,21.55805 5.00851,25.14541 16.604,44.43731 12.73529,70.19135 -3.14317,2.01644 -3.96856,-7.01293 -5.1219,-8.81368 -11.3745,-33.06988 -7.36306,-62.21181 -20.81624,-94.56111 -0.26358,-0.30834 -19.02672,-12.61135 -14.68546,-4.8529 z"
     id="path7940"
     sodipodi:nodetypes="ccccccccccccc" />
  <path
     style="fill:#374151;fill-opacity:1;stroke-width:0.935777"
     d="M 285.57916,27.115528 C 277.04417,29.6085 271.17673,37.646021 265.56243,44.290003 235.26902,85.5901 219.72661,135.6458 200.07657,182.72845 c -12.49978,28.90234 -22.32765,59.88046 -41.86848,84.77209 -15.91368,15.81346 -35.97542,26.22923 -54.75101,37.90794 -27.557205,16.63592 -57.12942,31.70909 -78.98865,56.36671 -3.310356,3.97914 3.491284,6.53561 6.030719,8.10299 30.640363,13.13587 64.467884,14.2346 97.161371,15.718 59.69136,2.31646 119.4628,-0.39466 178.85642,-6.76483 69.02257,-7.05461 137.89486,-15.85388 207.14627,-20.29891 73.30643,-5.79994 147.61071,-7.7127 219.23343,-26.4822 22.86637,-6.60934 46.23577,-12.89014 67.27393,-24.54036 3.19019,-1.62561 7.11452,-6.19403 3.32266,-9.4191 -16.65118,-13.56974 -38.55725,-16.86858 -58.87165,-20.50078 -24.40788,-4.34108 -48.93676,-7.75967 -73.54346,-10.62486 -15.55131,-2.06676 -32.43458,-5.52563 -43.23236,-18.41253 -15.89857,-18.25493 -27.58682,-39.94956 -41.06807,-60.09453 -12.37973,-18.17244 -22.27647,-38.48503 -37.42825,-54.4552 -7.14566,-6.56069 -17.72787,-4.885 -26.51801,-6.28922 C 482.12307,125.25875 439.59839,125.30464 402.0876,106.49744 362.80005,88.803692 332.12046,57.00885 297.27761,32.125292 293.7089,29.909785 289.9361,27.00487 285.57916,27.115528 Z"
     id="path16843" />
  <path
     style="fill:#000000;fill-opacity:1;stroke-width:1.81625"
     d="M 290.19275,2.9147312 C 261.18821,9.2444508 241.75269,35.829711 228.62458,60.687231 199.51829,121.01559 190.41395,188.44473 166.44269,250.60996 c -6.14529,13.71534 -23.23685,16.61037 -34.66951,24.47984 -40.3633,22.72625 -87.256166,36.00872 -121.053463,68.98636 -8.5074902,8.50078 -15.4950122,24.48599 -3.9264982,33.6929 30.7144812,27.8499 74.6999412,29.89286 113.6719912,35.74686 24.2651,3.60443 49.85108,1.73382 73.16454,9.92556 9.79176,10.15145 13.15572,26.74885 9.35088,40.2059 -5.82249,6.43357 -16.27703,-1.20024 -23.22381,-1.18711 -25.78473,-5.09417 -51.34775,-14.00759 -77.71311,-14.77606 -9.87887,4.52828 -10.98528,18.21856 -15.47764,27.02984 -11.33341,32.0453 -24.55935,63.73475 -34.854254,95.95038 -2.059084,39.15379 6.438264,77.56118 16.066784,115.23313 7.47528,26.83532 11.53503,55.03959 22.06924,80.81955 33.39413,-4.6798 66.38705,-16.28981 98.99587,-25.83303 139.78453,-43.53512 288.4753,-64.87748 434.4076,-45.30555 53.87392,5.94318 107.76087,14.50175 161.70052,18.19759 2.15398,-56.61158 10.27199,-113.1539 8.44629,-169.86944 -11.49164,-46.5439 -38.02914,-87.54671 -56.5806,-131.37693 -5.22541,-7.13207 -14.47796,2.12159 -20.81202,2.72373 -37.66412,13.46311 -73.92213,31.3872 -112.15411,42.90258 3.90172,-24.5935 10.47892,-49.03391 17.59851,-72.98008 58.87635,-12.63013 120.4371,-20.55334 174.32849,-49.04951 14.22007,-8.626 34.1763,-18.92176 34.83166,-37.90013 -3.10932,-18.57545 -24.86151,-25.05559 -40.32616,-29.89355 -45.89048,-9.18318 -93.09884,-9.05806 -139.33404,-15.50217 -9.51106,-1.6835 -21.05393,-3.9977 -23.98733,-14.84221 C 606.1493,200.35713 591.2797,159.06078 565.46173,124.39448 552.64417,107.76228 529.36169,110.49345 510.942,106.62744 470.02345,102.42387 427.20879,96.570427 392.93921,71.825661 360.48489,50.425881 333.46374,20.354721 297.73802,4.1421212 c -2.42472,-0.80016 -4.97388,-1.39936 -7.54527,-1.22739 z m 7.07348,39.1026798 c 33.35938,22.23498 61.70067,52.02328 98.40312,69.278079 33.47495,18.19412 71.96545,21.78378 109.36758,22.66401 13.80451,1.87475 29.03146,-0.40838 42.0104,5.18849 18.29703,18.28092 29.58467,42.54673 44.57081,63.5134 14.20236,19.5045 25.11278,43.03568 45.33732,57.14692 24.27134,10.89199 51.896,8.65096 77.55294,14.09059 29.05017,5.18633 61.53346,5.8814 86.05184,24.07912 3.93597,6.85505 -7.79338,10.46383 -12.09652,13.04369 -92.52116,38.73647 -194.66773,37.91019 -293.00229,45.92782 -90.46545,5.80488 -180.20186,20.10525 -270.73451,24.74342 -51.57062,0.72833 -103.64324,2.01924 -154.80112,-5.19385 -13.8636,-4.0268 -29.844162,-5.71572 -41.504254,-14.73223 2.009569,-7.50915 11.564163,-11.79274 16.665553,-17.50629 35.631851,-28.54963 79.748961,-44.40891 115.094481,-73.23548 20.00767,-22.65189 29.50498,-52.40277 41.83771,-79.53208 19.8951,-46.74878 36.00851,-96.343703 66.83604,-137.357789 5.76787,-6.37155 13.25478,-14.73473 21.3306,-15.73016 2.36009,1.20411 4.72019,2.40822 7.0803,3.61234 z M 589.76478,389.15612 c 5.34551,-0.48983 -0.0886,8.12814 0.80658,10.81103 -5.18443,23.82783 -7.69346,49.01795 -18.27031,71.17938 -14.51853,12.93718 -34.01679,19.02779 -51.59297,26.83587 -8.76632,3.53501 -17.8586,7.15473 -25.00897,-1.37638 -29.71549,-19.70131 -52.96501,-51.00193 -88.29409,-61.10348 -12.06074,-0.67264 -14.53982,15.55798 -20.50258,22.86519 -11.14554,18.19454 -18.40042,39.47009 -32.54481,55.48917 -8.38445,1.82924 -17.91803,-3.52279 -26.47049,-5.28914 -29.6871,-10.5955 -60.06087,-20.28556 -88.08834,-34.76779 -6.04212,-15.33571 -11.31518,-31.90718 -12.27036,-48.44292 6.74317,-6.25148 18.20586,-4.26851 26.7373,-6.40902 110.38364,-10.8296 220.80457,-21.72816 331.43558,-29.69674 1.35348,-0.0627 2.70855,-0.0937 4.06346,-0.0952 z m 140.49365,58.73739 c 10.76572,10.16972 15.07068,25.87776 22.12142,38.68764 10.59746,26.35045 27.66569,53.16754 24.21081,82.62539 -0.2771,2.85245 -3.48228,6.02582 -4.71445,1.41185 -15.60486,-24.04708 -25.6334,-51.37477 -40.99698,-75.4455 -5.33057,-3.69243 -13.65402,4.96551 -18.45698,0.21638 1.91351,-16.19755 7.52167,-32.59831 15.7397,-46.71179 0.52346,-0.55648 1.3061,-1.02052 2.09648,-0.78397 z m -25.78229,4.00499 c 7.72638,-0.8548 0.52909,9.87819 0.72259,13.24549 -15.81914,50.90373 -0.85331,103.98823 1.70735,155.5562 -0.57548,7.48394 -11.62235,3.9064 -16.40659,4.67187 -75.3964,-7.37252 -151.14471,-9.48197 -226.80476,-12.57541 13.98481,-27.13314 20.709,-58.36136 38.87565,-83.1646 28.26985,-15.48948 59.66167,-24.68784 89.31511,-37.24379 37.33284,-13.92021 74.31904,-29.44435 112.59065,-40.48976 z m -289.91607,13.99793 c 11.14283,32.39983 13.06649,67.74262 26.54499,99.29448 4.65631,1.06204 3.79654,-8.43755 4.08657,-11.35159 0.0849,-25.80925 -8.87004,-50.43401 -12.49029,-75.6477 0.38007,-6.51662 7.72357,1.437 9.9894,2.94785 12.01961,10.2741 22.99169,21.71387 34.37758,32.68904 -10.44192,29.30695 -16.96774,60.87496 -32.63583,87.86841 -5.58113,-0.0804 -10.11179,-8.16877 -14.97345,-11.16714 -6.11497,-4.68413 -12.18847,-13.41656 -19.04939,-15.5233 5.2116,13.43276 14.49006,25.6238 19.78014,38.65572 -41.22503,5.78528 -83.22969,7.41905 -124.15125,15.94426 -48.97336,8.98766 -96.85972,24.03128 -145.38161,34.20138 -5.71469,-15.88242 -2.7847,-33.99042 -4.04042,-50.69878 -0.76671,-22.1374 1.13889,-44.85166 -0.94656,-66.63925 -10.95956,-23.197 -26.05871,-45.29905 -32.31718,-70.26472 5.67092,-1.25064 13.85445,3.44658 20.18881,4.11165 69.81524,18.16854 140.31648,35.21943 212.07182,43.38411 11.54924,-8.83973 17.23184,-23.82577 26.79806,-34.76046 9.04431,-11.88746 17.09366,-24.68836 27.5867,-35.35335 1.52064,4.10313 3.04127,8.20625 4.56191,12.30939 z m -308.44043,23.7319 c 10.62804,10.45678 16.92808,25.29632 24.39527,38.23003 0.51356,2.63862 7.6058,11.23517 0.69884,9.79784 -7.60079,0.0157 -20.47842,-6.08892 -22.79896,5.31042 -12.03586,27.69501 -18.20717,58.42195 -32.89124,84.68641 -5.57106,-9.17663 -3.10427,-21.66685 -3.66088,-32.1108 1.03965,-33.82778 14.74504,-65.69029 27.74399,-96.41757 1.93365,-3.0587 3.13296,-7.81756 6.51298,-9.49633 z m 620.02385,18.61661 c 5.64036,3.6634 2.56805,13.27237 4.19231,18.93612 2.20688,49.00248 5.60371,99.21815 26.15,144.54191 2.28439,8.69987 8.09103,18.1122 6.27365,27.11873 -13.17358,2.00651 -26.89056,-3.74417 -40.15319,-4.79544 -70.64692,-11.31047 -140.57994,-30.89254 -212.68902,-29.5742 -66.9734,-2.60078 -133.813,6.52666 -198.61343,23.12263 -69.23513,16.01691 -135.54151,43.11712 -203.26505,63.41465 2.55544,-28.59816 11.45529,-56.87308 13.98363,-85.72314 4.75677,-37.36486 -6.89616,-74.92269 -2.25247,-112.09961 6.16969,-8.06159 18.27363,1.16915 21.01109,8.39664 7.49056,36.97967 6.4651,75.39307 9.20188,112.80644 58.53438,-8.60389 116.00964,-24.15915 174.78548,-31.70923 89.71736,-10.68604 180.34824,-8.29067 270.52276,-8.32562 41.53273,0.22219 83.30554,1.57361 124.63735,3.15636 -2.88955,-39.05226 -9.62578,-78.04096 -12.71732,-116.86108 5.12422,-5.08634 11.64219,-10.99422 18.93233,-12.40516 z m 22.68543,53.07224 c 8.05731,7.11778 14.3687,18.18774 15.03378,29.02104 -2.57218,4.79864 -12.5703,9.55617 -16.20441,4.27814 -0.42869,-10.84115 -2.7348,-23.24385 0.90813,-33.34175 z M 103.74644,600.4305 c 4.63349,11.09682 3.15507,24.7305 2.38739,36.71175 -2.30188,9.90736 -21.8208,3.73427 -15.27282,-6.30582 3.49824,-10.05969 4.65867,-22.90858 12.67614,-30.43076 z m 667.07264,4.82088 c 6.95509,5.06256 2.42335,16.16832 2.96205,23.37363 -2.0805,7.42174 0.53157,18.21066 -5.33878,23.8277 -9.11244,-7.85594 -10.31771,-22.13475 -14.9238,-32.87704 -5.01886,-8.32368 8.95253,-9.67175 13.28492,-13.30975 1.27223,-0.49587 2.6048,-1.20764 4.01561,-1.01454 z M 86.31466,653.50274 c 8.41103,0.70996 23.14846,4.96611 19.68082,16.29661 -2.96495,12.57728 -3.58988,27.21227 -11.45446,37.76887 -6.89881,-16.73061 -10.36429,-35.42946 -11.84468,-53.30636 0.91206,-0.93764 2.45994,-0.64829 3.61832,-0.75912 z"
     id="path14172" />
  <path
     style="fill:#000000;fill-opacity:1;stroke-width:1.81625"
     d="m 601.52307,264.15938 c -134.99002,7.25009 -270.23609,5.80966 -405.31207,10.01778 -1.42382,-0.0517 -10.15347,1.11373 -4.50871,2.58249 48.52732,9.85184 98.32781,12.0997 147.6088,16.1579 86.64175,3.89209 174.73476,1.14738 258.95903,-21.29095 4.07793,-2.01916 12.58205,-2.42859 13.81701,-7.16569 -3.46748,-0.59092 -7.06383,-0.23815 -10.56406,-0.30153 z"
     id="path14211" />
</svg>
